<svg width="514" height="88" viewBox="0 0 514 88" fill="none" xmlns="http://www.w3.org/2000/svg">
<path fill-rule="evenodd" clip-rule="evenodd" d="M504 7H507C510.866 7 514 10.134 514 14V64C514 67.866 510.866 71 507 71H504H481H474V64V14V7H481H504ZM506 19H482V27H506V19ZM482 35H506V43H482V35ZM506 51H482V59H506V51Z" fill="black"/>
<path fill-rule="evenodd" clip-rule="evenodd" d="M7 7C3.134 7 0 10.134 0 14V64C0 67.866 3.134 71 7 71H33H40V64V14V7H33H7Z" fill="black"/>
<path d="M91.6567 22.39V29.925H81.4267V61H72.0217V29.925H61.7917V22.39H91.6567ZM115.242 29.98C118.762 29.98 121.585 31.1533 123.712 33.5C125.838 35.81 126.902 39 126.902 43.07V61H117.552V44.335C117.552 42.2817 117.02 40.6867 115.957 39.55C114.893 38.4133 113.463 37.845 111.667 37.845C109.87 37.845 108.44 38.4133 107.377 39.55C106.313 40.6867 105.782 42.2817 105.782 44.335V61H96.3768V20.3H105.782V34.435C106.735 33.0783 108.037 31.9967 109.687 31.19C111.337 30.3833 113.188 29.98 115.242 29.98ZM162.367 45.16C162.367 46.04 162.312 46.9567 162.202 47.91H140.917C141.064 49.8167 141.669 51.2833 142.732 52.31C143.832 53.3 145.171 53.795 146.747 53.795C149.094 53.795 150.726 52.805 151.642 50.825H161.652C161.139 52.8417 160.204 54.6567 158.847 56.27C157.527 57.8833 155.859 59.1483 153.842 60.065C151.826 60.9817 149.571 61.44 147.077 61.44C144.071 61.44 141.394 60.7983 139.047 59.515C136.701 58.2317 134.867 56.3983 133.547 54.015C132.227 51.6317 131.567 48.845 131.567 45.655C131.567 42.465 132.209 39.6783 133.492 37.295C134.812 34.9117 136.646 33.0783 138.992 31.795C141.339 30.5117 144.034 29.87 147.077 29.87C150.047 29.87 152.687 30.4933 154.997 31.74C157.307 32.9867 159.104 34.765 160.387 37.075C161.707 39.385 162.367 42.08 162.367 45.16ZM152.742 42.685C152.742 41.0717 152.192 39.7883 151.092 38.835C149.992 37.8817 148.617 37.405 146.967 37.405C145.391 37.405 144.052 37.8633 142.952 38.78C141.889 39.6967 141.229 40.9983 140.972 42.685H152.742ZM202.359 41.2C204.596 41.6767 206.393 42.795 207.749 44.555C209.106 46.2783 209.784 48.2583 209.784 50.495C209.784 53.7217 208.648 56.2883 206.374 58.195C204.138 60.065 201.003 61 196.969 61H178.984V22.39H196.364C200.288 22.39 203.349 23.2883 205.549 25.085C207.786 26.8817 208.904 29.32 208.904 32.4C208.904 34.6733 208.299 36.5617 207.089 38.065C205.916 39.5683 204.339 40.6133 202.359 41.2ZM188.389 38.01H194.549C196.089 38.01 197.263 37.68 198.069 37.02C198.913 36.3233 199.334 35.315 199.334 33.995C199.334 32.675 198.913 31.6667 198.069 30.97C197.263 30.2733 196.089 29.925 194.549 29.925H188.389V38.01ZM195.319 53.41C196.896 53.41 198.106 53.0617 198.949 52.365C199.829 51.6317 200.269 50.5867 200.269 49.23C200.269 47.8733 199.811 46.81 198.894 46.04C198.014 45.27 196.786 44.885 195.209 44.885H188.389V53.41H195.319ZM229.209 61.44C226.202 61.44 223.489 60.7983 221.069 59.515C218.686 58.2317 216.797 56.3983 215.404 54.015C214.047 51.6317 213.369 48.845 213.369 45.655C213.369 42.5017 214.066 39.7333 215.459 37.35C216.852 34.93 218.759 33.0783 221.179 31.795C223.599 30.5117 226.312 29.87 229.319 29.87C232.326 29.87 235.039 30.5117 237.459 31.795C239.879 33.0783 241.786 34.93 243.179 37.35C244.572 39.7333 245.269 42.5017 245.269 45.655C245.269 48.8083 244.554 51.595 243.124 54.015C241.731 56.3983 239.806 58.2317 237.349 59.515C234.929 60.7983 232.216 61.44 229.209 61.44ZM229.209 53.3C231.006 53.3 232.527 52.64 233.774 51.32C235.057 50 235.699 48.1117 235.699 45.655C235.699 43.1983 235.076 41.31 233.829 39.99C232.619 38.67 231.116 38.01 229.319 38.01C227.486 38.01 225.964 38.67 224.754 39.99C223.544 41.2733 222.939 43.1617 222.939 45.655C222.939 48.1117 223.526 50 224.699 51.32C225.909 52.64 227.412 53.3 229.209 53.3ZM264.229 61.44C261.222 61.44 258.509 60.7983 256.089 59.515C253.705 58.2317 251.817 56.3983 250.424 54.015C249.067 51.6317 248.389 48.845 248.389 45.655C248.389 42.5017 249.085 39.7333 250.479 37.35C251.872 34.93 253.779 33.0783 256.199 31.795C258.619 30.5117 261.332 29.87 264.339 29.87C267.345 29.87 270.059 30.5117 272.479 31.795C274.899 33.0783 276.805 34.93 278.199 37.35C279.592 39.7333 280.289 42.5017 280.289 45.655C280.289 48.8083 279.574 51.595 278.144 54.015C276.75 56.3983 274.825 58.2317 272.369 59.515C269.949 60.7983 267.235 61.44 264.229 61.44ZM264.229 53.3C266.025 53.3 267.547 52.64 268.794 51.32C270.077 50 270.719 48.1117 270.719 45.655C270.719 43.1983 270.095 41.31 268.849 39.99C267.639 38.67 266.135 38.01 264.339 38.01C262.505 38.01 260.984 38.67 259.774 39.99C258.564 41.2733 257.959 43.1617 257.959 45.655C257.959 48.1117 258.545 50 259.719 51.32C260.929 52.64 262.432 53.3 264.229 53.3ZM304.033 61L294.683 48.13V61H285.278V20.3H294.683V42.795L303.978 30.31H315.583L302.823 45.71L315.693 61H304.033ZM331.762 61.44C329.086 61.44 326.702 60.9817 324.612 60.065C322.522 59.1483 320.872 57.9017 319.662 56.325C318.452 54.7117 317.774 52.915 317.627 50.935H326.922C327.032 51.9983 327.527 52.86 328.407 53.52C329.287 54.18 330.369 54.51 331.652 54.51C332.826 54.51 333.724 54.29 334.347 53.85C335.007 53.3733 335.337 52.7683 335.337 52.035C335.337 51.155 334.879 50.5133 333.962 50.11C333.046 49.67 331.561 49.1933 329.507 48.68C327.307 48.1667 325.474 47.635 324.007 47.085C322.541 46.4983 321.276 45.6 320.212 44.39C319.149 43.1433 318.617 41.475 318.617 39.385C318.617 37.625 319.094 36.03 320.047 34.6C321.037 33.1333 322.467 31.9783 324.337 31.135C326.244 30.2917 328.499 29.87 331.102 29.87C334.952 29.87 337.977 30.8233 340.177 32.73C342.414 34.6367 343.697 37.1667 344.027 40.32H335.337C335.191 39.2567 334.714 38.4133 333.907 37.79C333.137 37.1667 332.111 36.855 330.827 36.855C329.727 36.855 328.884 37.075 328.297 37.515C327.711 37.9183 327.417 38.4867 327.417 39.22C327.417 40.1 327.876 40.76 328.792 41.2C329.746 41.64 331.212 42.08 333.192 42.52C335.466 43.1067 337.317 43.6933 338.747 44.28C340.177 44.83 341.424 45.7467 342.487 47.03C343.587 48.2767 344.156 49.9633 344.192 52.09C344.192 53.8867 343.679 55.5 342.652 56.93C341.662 58.3233 340.214 59.4233 338.307 60.23C336.437 61.0367 334.256 61.44 331.762 61.44ZM368.811 29.98C372.331 29.98 375.154 31.1533 377.281 33.5C379.408 35.81 380.471 39 380.471 43.07V61H371.121V44.335C371.121 42.2817 370.589 40.6867 369.526 39.55C368.463 38.4133 367.033 37.845 365.236 37.845C363.439 37.845 362.009 38.4133 360.946 39.55C359.883 40.6867 359.351 42.2817 359.351 44.335V61H349.946V20.3H359.351V34.435C360.304 33.0783 361.606 31.9967 363.256 31.19C364.906 30.3833 366.758 29.98 368.811 29.98ZM415.937 45.16C415.937 46.04 415.882 46.9567 415.772 47.91H394.487C394.633 49.8167 395.238 51.2833 396.302 52.31C397.402 53.3 398.74 53.795 400.317 53.795C402.663 53.795 404.295 52.805 405.212 50.825H415.222C414.708 52.8417 413.773 54.6567 412.417 56.27C411.097 57.8833 409.428 59.1483 407.412 60.065C405.395 60.9817 403.14 61.44 400.647 61.44C397.64 61.44 394.963 60.7983 392.617 59.515C390.27 58.2317 388.437 56.3983 387.117 54.015C385.797 51.6317 385.137 48.845 385.137 45.655C385.137 42.465 385.778 39.6783 387.062 37.295C388.382 34.9117 390.215 33.0783 392.562 31.795C394.908 30.5117 397.603 29.87 400.647 29.87C403.617 29.87 406.257 30.4933 408.567 31.74C410.877 32.9867 412.673 34.765 413.957 37.075C415.277 39.385 415.937 42.08 415.937 45.16ZM406.312 42.685C406.312 41.0717 405.762 39.7883 404.662 38.835C403.562 37.8817 402.187 37.405 400.537 37.405C398.96 37.405 397.622 37.8633 396.522 38.78C395.458 39.6967 394.798 40.9983 394.542 42.685H406.312ZM430.303 20.3V61H420.898V20.3H430.303ZM452.519 38.12H447.459V61H438.054V38.12H434.644V30.31H438.054V29.43C438.054 25.6533 439.136 22.7933 441.299 20.85C443.462 18.87 446.634 17.88 450.814 17.88C451.511 17.88 452.024 17.8983 452.354 17.935V25.91C450.557 25.8 449.292 26.0567 448.559 26.68C447.826 27.3033 447.459 28.4217 447.459 30.035V30.31H452.519V38.12Z" fill="black"/>
<rect width="394" height="5" transform="matrix(1 0 0 -1 60 88)" fill="black"/>
</svg>
