<svg width="34" height="34" viewBox="0 0 34 34" fill="none" xmlns="http://www.w3.org/2000/svg">
<rect width="34" height="34" rx="17" fill="black"/>
<path d="M20.0057 18.805H19.3734L19.1492 18.5889C19.9337 17.6764 20.4059 16.4917 20.4059 15.203C20.4059 12.3293 18.0766 10 15.203 10C12.3293 10 10 12.3293 10 15.203C10 18.0766 12.3293 20.4059 15.203 20.4059C16.4917 20.4059 17.6764 19.9337 18.5889 19.1492L18.805 19.3734V20.0057L22.8073 24L24 22.8073L20.0057 18.805ZM15.203 18.805C13.2098 18.805 11.6009 17.1961 11.6009 15.203C11.6009 13.2098 13.2098 11.6009 15.203 11.6009C17.1961 11.6009 18.805 13.2098 18.805 15.203C18.805 17.1961 17.1961 18.805 15.203 18.805Z" fill="white"/>
</svg>
